HIERARCHY
ROOT Hips
{
	OFFSET 0.000000 0.000000 0.000000
	CHANNELS 6 Xposition Yposition Zposition Zrotation Yrotation Xrotation 
	JOINT LHipJoint
	{
		OFFSET 0.000000 0.000000 0.000000
		CHANNELS 3 Zrotation Yrotation Xrotation
		JOINT LeftUpLeg
		{
			OFFSET 1.363060 -1.794630 0.839290
			CHANNELS 3 Zrotation Yrotation Xrotation
			JOINT LeftLeg
			{
				OFFSET 2.448110 -6.726130 0.000000
				CHANNELS 3 Zrotation Yrotation Xrotation
				JOINT LeftFoot
				{
					OFFSET 2.562200 -7.039590 0.000000
					CHANNELS 3 Zrotation Yrotation Xrotation
					JOINT LeftToeBase
					{
						OFFSET 0.157640 -0.433110 2.322550
						CHANNELS 3 Zrotation Yrotation Xrotation
						End Site
						{
							OFFSET 0.000000 0.000000 0.000000
						}
					}
				}
			}
		}
	}
	JOINT RHipJoint
	{
		OFFSET 0.000000 0.000000 0.000000
		CHANNELS 3 Zrotation Yrotation Xrotation
		JOINT RightUpLeg
		{
			OFFSET -1.305520 -1.794630 0.839290
			CHANNELS 3 Zrotation Yrotation Xrotation
			JOINT RightLeg
			{
				OFFSET -2.542530 -6.985550 0.000000
				CHANNELS 3 Zrotation Yrotation Xrotation
				JOINT RightFoot
				{
					OFFSET -2.568260 -7.056230 0.000000
					CHANNELS 3 Zrotation Yrotation Xrotation
					JOINT RightToeBase
					{
						OFFSET -0.164730 -0.452590 2.363150
						CHANNELS 3 Zrotation Yrotation Xrotation
						End Site
						{
							OFFSET 0.000000 0.000000 0.000000
						}
					}
				}
			}
		}
	}
	JOINT LowerBack
	{
		OFFSET 0.000000 0.000000 0.000000
		CHANNELS 3 Zrotation Yrotation Xrotation
		JOINT Spine
		{
			OFFSET 0.028270 2.035590 -0.193380
			CHANNELS 3 Zrotation Yrotation Xrotation
			JOINT Spine1
			{
				OFFSET 0.056720 2.048850 -0.042750
				CHANNELS 3 Zrotation Yrotation Xrotation
				JOINT Neck
				{
					OFFSET 0.000000 0.000000 0.000000
					CHANNELS 3 Zrotation Yrotation Xrotation
					JOINT Neck1
					{
						OFFSET -0.054170 1.746240 0.172020
						CHANNELS 3 Zrotation Yrotation Xrotation
						JOINT Head
						{
							OFFSET 0.104070 1.761360 -0.123970
							CHANNELS 3 Zrotation Yrotation Xrotation
							End Site
							{
								OFFSET 0.000000 0.000000 0.000000
							}
						}
					}
				}
				JOINT LeftShoulder
				{
					OFFSET 0.000000 0.000000 0.000000
					CHANNELS 3 Zrotation Yrotation Xrotation
					JOINT LeftArm
					{
						OFFSET 3.362410 1.200890 -0.311210
						CHANNELS 3 Zrotation Yrotation Xrotation
						JOINT LeftForeArm
						{
							OFFSET 4.983000 -0.000000 -0.000000
							CHANNELS 3 Zrotation Yrotation Xrotation
							JOINT LeftHand
							{
								OFFSET 3.483560 -0.000000 -0.000000
								CHANNELS 3 Zrotation Yrotation Xrotation
								JOINT LeftFingerBase
								{
									OFFSET 0.000000 0.000000 0.000000
									CHANNELS 3 Zrotation Yrotation Xrotation
									JOINT LeftHandIndex1
									{
										OFFSET 0.715260 -0.000000 -0.000000
										CHANNELS 3 Zrotation Yrotation Xrotation
										End Site
										{
											OFFSET 0.000000 0.000000 0.000000
										}
									}
								}
								JOINT LThumb
								{
									OFFSET 0.000000 0.000000 0.000000
									CHANNELS 3 Zrotation Yrotation Xrotation
									End Site
									{
										OFFSET 0.000000 0.000000 0.000000
									}
								}
							}
						}
					}
				}
				JOINT RightShoulder
				{
					OFFSET 0.000000 0.000000 0.000000
					CHANNELS 3 Zrotation Yrotation Xrotation
					JOINT RightArm
					{
						OFFSET -3.136600 1.374050 -0.404650
						CHANNELS 3 Zrotation Yrotation Xrotation
						JOINT RightForeArm
						{
							OFFSET -5.241900 -0.000000 -0.000000
							CHANNELS 3 Zrotation Yrotation Xrotation
							JOINT RightHand
							{
								OFFSET -3.444170 -0.000000 -0.000000
								CHANNELS 3 Zrotation Yrotation Xrotation
								JOINT RightFingerBase
								{
									OFFSET 0.000000 0.000000 0.000000
									CHANNELS 3 Zrotation Yrotation Xrotation
									JOINT RightHandIndex1
									{
										OFFSET -0.622530 -0.000000 -0.000000
										CHANNELS 3 Zrotation Yrotation Xrotation
										End Site
										{
											OFFSET 0.000000 0.000000 0.000000
										}
									}
								}
								JOINT RThumb
								{
									OFFSET 0.000000 0.000000 0.000000
									CHANNELS 3 Zrotation Yrotation Xrotation
									End Site
									{
										OFFSET 0.000000 0.000000 0.000000
									}
								}
							}
						}
					}
				}
			}
		}
	}
}
MOTION
Frames: 11
Frame Time: 0.008333
0.933444 15.296453 -14.522796 -0.854592 0.339694 38.136356 4.422065 2.302537 0.988698 -6.962889 -20.109777 -69.701821 13.588933 20.856397 71.593598 1.975949 -1.291489 -22.977616 0.385106 -3.983883 -11.031513 -4.847666 -3.056487 2.432435 10.945336 18.621290 -71.318058 -14.754311 -20.613737 75.044491 -1.255420 -1.669904 -22.235189 -0.896845 6.031951 -16.878441 5.429274 -1.141240 52.535985 0.961751 2.186916 0.448477 -1.699120 0.867542 -18.581020 -6.415139 -3.945501 -17.713583 7.341077 -2.052821 -26.637114 4.146321 -0.444107 -2.313359 -5.672967 2.492153 -2.658814 -87.649223 -9.642252 24.273402 35.994297 -45.978569 -18.780904 -0.497633 -2.395870 -17.916570 28.083669 14.639095 9.246206 -7.125000 0.000000 0.000000 1.450309 49.124288 0.147704 3.435029 -0.412213 -1.932615 82.488364 11.242871 16.771205 -43.811975 47.681561 -23.532510 1.794487 -0.110580 -19.146582 -24.234934 25.011372 -11.769721 7.125000 0.000000 0.000000 2.283643 -2.145806 2.198302
0.919795 15.247628 -14.373080 -0.784824 0.693616 37.503347 4.436442 2.324948 1.006093 -6.751851 -20.467984 -69.013989 14.047317 20.958858 72.906779 2.004347 -1.349876 -23.103360 0.503522 -4.530527 -12.577467 -4.882363 -3.060675 2.423626 10.964201 18.792729 -70.542115 -15.252169 -20.709160 76.497160 -1.263894 -1.905644 -22.663436 -1.164549 6.848276 -19.267713 5.625572 -1.156052 51.125221 1.067055 2.238722 0.494330 -1.597536 0.892019 -18.249020 -6.271693 -3.827766 -18.013046 7.095581 -2.001461 -25.993273 4.031658 -0.422512 -2.095654 -5.490248 2.421423 -2.633407 -88.145701 -11.748785 25.106747 39.279693 -47.924815 -21.514360 -0.474286 -2.288541 -17.016168 27.482877 13.884270 8.553294 -7.125000 0.000000 0.000000 0.868374 48.082573 0.045273 3.290676 -0.403707 -1.922752 82.325177 12.812518 17.175477 -47.360931 49.403776 -26.605694 1.751188 -0.156423 -17.953472 -22.777745 25.308852 -11.135875 7.125000 0.000000 0.000000 3.229258 -2.124765 3.113844
0.906493 15.197416 -14.210662 -0.650183 1.008422 36.888387 4.447192 2.341975 1.019944 -6.726530 -20.827590 -68.078190 14.455038 21.036071 74.091812 1.974331 -0.900582 -23.467092 0.869715 -5.885605 -16.470718 -4.922331 -3.064221 2.411372 10.990524 18.926318 -69.667271 -15.722080 -20.785490 77.861114 -1.281713 -2.130711 -23.153624 -1.255459 7.102786 -20.020579 5.713983 -1.046805 49.411026 1.208269 2.362610 0.553661 -1.382280 0.957322 -17.824571 -6.227123 -3.734043 -18.244060 6.743251 -1.990859 -25.205333 3.899345 -0.415687 -1.847508 -5.265588 2.373706 -2.612826 -88.679645 -13.504877 26.567940 44.321301 -50.550949 -25.838236 -0.248647 -2.240339 -16.933289 25.491625 15.512794 8.570630 -7.125000 0.000000 0.000000 -1.563295 49.544213 -0.172481 3.127208 -0.425441 -1.911953 81.946900 14.279649 17.610221 -51.695655 51.247218 -30.451304 1.714362 -0.234617 -16.841247 -20.641278 25.991174 -10.311977 7.125000 0.000000 0.000000 4.633747 -1.780740 4.504574
0.890439 15.136363 -14.050643 -0.567017 0.873942 36.359983 4.459183 2.343973 1.010650 -6.917869 -20.838531 -67.150483 14.839948 21.111398 75.219806 1.929030 -0.277942 -23.950253 1.421192 -7.514988 -21.261863 -4.970299 -3.075139 2.382515 10.879064 19.407244 -68.855578 -16.127106 -20.829541 79.041811 -1.157803 -2.716747 -23.017560 -1.147582 6.799159 -19.122886 5.363343 -0.639661 47.234398 1.320876 2.538842 0.869272 -1.168052 1.055369 -17.525012 -6.193608 -3.628620 -17.916254 6.556661 -1.954723 -24.440307 3.826220 -0.406672 -1.687882 -5.049708 2.347307 -2.566119 -88.712498 -15.088489 28.381591 50.280827 -53.164490 -31.109143 -0.124131 -2.142241 -18.285371 24.676225 15.013245 7.974874 -7.125000 0.000000 0.000000 -2.355827 48.770370 -0.220108 2.952968 -0.455106 -1.874936 81.504074 15.513503 18.487718 -57.280317 53.254558 -35.530028 1.711003 -0.275524 -16.227186 -18.554202 26.299334 -9.384899 7.125000 0.000000 0.000000 5.930748 -1.805589 5.771117
0.871223 15.100287 -13.878340 -0.391224 0.876473 35.794391 4.479894 2.344574 1.010822 -7.148836 -20.947795 -66.230120 15.165317 21.157537 76.142062 1.995006 -0.357068 -24.318216 1.753690 -8.330192 -23.723196 -5.013548 -3.082061 2.357454 11.009197 19.661026 -67.633693 -16.400770 -20.843153 79.842519 -0.990989 -3.569323 -22.960555 -1.073462 6.586179 -18.494954 5.158637 -0.447514 45.274604 1.311427 2.525399 1.021795 -1.211636 1.063845 -17.496890 -5.976383 -3.586733 -17.492679 6.653418 -2.000971 -23.503153 3.801462 -0.462729 -1.468772 -4.850498 2.336785 -2.515955 -88.112910 -16.669689 30.197242 57.114054 -55.669515 -37.282665 -0.098514 -2.039193 -19.842453 24.963477 13.368495 7.271537 -7.125000 0.000000 0.000000 -1.781299 46.905603 -0.093125 2.752049 -0.478161 -1.835384 81.144882 16.391332 19.817615 -64.465034 55.375564 -42.221708 1.732079 -0.263613 -16.065053 -16.560024 25.750415 -8.263541 7.125000 0.000000 0.000000 7.061902 -2.689056 6.770955
0.847102 15.091306 -13.681204 -0.081199 1.004671 35.166473 4.493967 2.349704 1.038278 -7.564806 -21.137492 -65.023606 15.373866 21.161064 76.710130 2.130731 -0.781335 -24.733233 1.980923 -8.823819 -25.247363 -5.062233 -3.079905 2.345045 11.310335 19.684353 -65.951318 -16.535091 -20.824795 80.231967 -0.920268 -4.256974 -23.471140 -1.106283 6.682558 -18.778279 4.819010 -0.261304 43.579575 1.359467 2.518962 0.807143 -0.923577 1.094107 -17.421952 -6.016776 -3.673392 -18.491396 6.796223 -2.127356 -21.623345 3.812179 -0.529365 -0.727763 -4.643094 2.344189 -2.477420 -87.656710 -18.336608 31.425935 64.602478 -57.990889 -44.204519 -0.080067 -1.846304 -19.235365 23.122896 11.319637 5.739051 -7.125000 0.000000 0.000000 -3.227445 44.245581 0.083049 2.553391 -0.543409 -1.832894 80.209329 16.984708 21.166267 -73.068010 57.456468 -50.289204 1.748135 -0.265819 -16.502580 -14.103706 24.870845 -6.893436 7.125000 0.000000 0.000000 8.474722 -3.904946 7.963433
0.819145 15.092448 -13.469809 0.030513 1.108848 34.531776 4.507850 2.343876 1.050800 -7.999857 -20.987910 -63.480736 15.460174 21.137238 76.930127 2.256452 -1.095837 -25.211087 2.279934 -9.424909 -27.134756 -5.117750 -3.074385 2.322499 11.924802 19.794426 -64.017327 -16.543952 -20.777435 80.258418 -0.842337 -5.024129 -24.058344 -1.226530 7.023457 -19.785208 4.513865 -0.083488 41.652905 1.371568 2.489032 0.668152 -0.698305 1.119286 -17.040613 -5.936426 -3.681004 -19.107273 7.003026 -2.185946 -19.943246 3.833784 -0.565074 -0.131460 -4.447982 2.381388 -2.390252 -86.730980 -20.373901 32.104183 73.150387 -60.232786 -52.017321 -0.074924 -1.576682 -17.560263 19.956986 9.193626 3.992798 -7.125000 0.000000 0.000000 -5.835408 41.345466 0.538277 2.368451 -0.630988 -1.803326 79.143562 17.911858 22.466961 -81.696159 59.110981 -58.139975 1.761417 -0.343772 -16.495829 -12.307173 24.655910 -6.041859 7.125000 0.000000 0.000000 9.562702 -4.275397 8.951183
0.788503 15.094661 -13.239299 -0.142147 1.157593 33.926056 4.516886 2.338258 1.064913 -8.312353 -20.472463 -61.770451 15.464226 21.092387 76.900557 2.337447 -1.742424 -24.958469 2.381862 -9.619602 -27.753772 -5.180514 -3.067097 2.305445 12.883651 20.052423 -61.966363 -16.453049 -20.705019 79.994636 -0.696296 -5.940628 -24.338268 -1.400244 7.485164 -21.161098 4.252710 0.106652 39.868263 1.382399 2.523916 0.414036 -0.519023 1.166646 -16.957178 -5.779700 -3.705681 -19.743022 7.269373 -2.307523 -17.898429 3.854922 -0.633808 0.593595 -4.258954 2.438723 -2.295169 -85.252881 -21.877348 32.255996 83.737182 -62.308174 -60.810384 -0.149157 -1.524552 -16.037756 21.963447 10.032871 4.736659 -7.125000 0.000000 0.000000 -4.160715 42.381647 0.269235 2.190925 -0.735393 -1.793031 78.001003 18.590849 23.710009 -91.033438 60.244333 -66.114478 1.692502 -0.459256 -15.786148 -11.080809 24.245827 -5.392087 7.125000 0.000000 0.000000 10.344363 -4.758742 9.611830
0.759454 15.120441 -12.960807 -0.117877 1.037740 33.304552 4.518829 2.322605 1.073362 -9.121685 -19.839236 -59.542042 15.345179 20.996144 76.504188 2.393272 -2.838888 -23.980312 2.205565 -9.279084 -26.674201 -5.241004 -3.058846 2.278411 13.699929 20.102515 -59.588444 -16.263560 -20.606835 79.430871 -0.599292 -6.483932 -24.424958 -1.505299 7.749132 -21.954600 3.744092 0.359374 37.880605 1.369293 2.515442 0.172416 -0.238387 1.216245 -16.778063 -5.627519 -3.724616 -20.197899 7.436198 -2.459178 -15.855424 3.847538 -0.714751 1.290405 -4.055732 2.523903 -2.241192 -83.380405 -23.051021 32.054458 95.604680 -63.400640 -69.790852 -0.212374 -1.346008 -14.776098 22.087518 10.768425 4.984421 -7.125000 0.000000 0.000000 -4.148148 42.979136 0.208985 1.980890 -0.873049 -1.797994 76.842285 18.776398 24.805373 -102.458355 60.401600 -75.166776 1.447960 -0.670366 -15.488589 -8.207990 23.766338 -3.977297 7.125000 0.000000 0.000000 12.256103 -5.422389 11.305118
0.733227 15.169777 -12.665700 -0.155353 0.949405 32.688304 4.511911 2.306406 1.075306 -9.840846 -19.160070 -57.206749 15.098403 20.864420 75.738565 2.487367 -3.739283 -23.533394 2.014000 -8.895259 -25.468230 -5.300715 -3.044875 2.240734 14.630645 20.027275 -56.995995 -15.966721 -20.477556 78.538390 -0.541433 -6.649525 -24.213612 -1.522178 7.790473 -22.079440 3.290168 0.598899 35.871053 1.390943 2.546054 -0.056565 0.089409 1.280611 -16.602616 -5.655279 -3.780936 -20.348168 7.691527 -2.595882 -14.182618 3.908025 -0.777109 1.841387 -3.851644 2.595763 -2.261675 -81.313599 -24.060985 32.102827 107.085449 -62.895935 -77.944423 -0.321728 -1.180391 -14.024673 22.680289 11.692245 5.442678 -7.125000 0.000000 0.000000 -3.681675 43.830287 0.107007 1.761325 -0.971487 -1.813560 75.502022 18.458001 26.205705 -113.305088 59.133196 -83.382149 1.156347 -0.830699 -14.280104 -6.039213 22.407072 -2.782678 7.125000 0.000000 0.000000 13.739521 -6.910331 12.352974
0.710622 15.238575 -12.345629 -0.292872 0.990722 32.052050 4.495338 2.292555 1.069426 -10.428922 -18.391162 -54.716846 14.707918 20.684666 74.574521 2.483222 -4.219021 -22.879982 2.097607 -9.064336 -25.998461 -5.357354 -3.026987 2.189205 15.788313 19.743005 -54.145020 -15.543899 -20.306068 77.260609 -0.469980 -6.694255 -23.678238 -1.555582 7.871304 -22.324046 3.032299 0.730175 33.799969 1.425273 2.536392 -0.258112 0.356300 1.317220 -16.328399 -5.619172 -3.851027 -20.341635 8.000235 -2.753672 -12.881998 3.977040 -0.848566 2.259052 -3.648541 2.660697 -2.315453 -78.942908 -24.515915 32.254714 117.919571 -60.967594 -85.606407 -0.434442 -0.998919 -13.646366 22.598179 11.999850 5.472791 -7.125000 0.000000 0.000000 -3.718378 43.921528 0.100170 1.534801 -1.055184 -1.819492 74.215868 17.807061 27.806293 -123.254559 56.682016 -90.724442 0.967565 -0.955567 -13.372661 -5.053474 21.608391 -2.237418 7.125000 0.000000 0.000000 14.462082 -7.715135 12.815263
